<mxfile host="app.diagrams.net" modified="2020-04-03T08:20:46.259Z" agent="5.0 (Windows NT 10.0; Win64; x64) AppleWebKit/537.36 (KHTML, like Gecko) Chrome/80.0.3987.162 Safari/537.36" etag="KGlMwLNA9BgY7iTe_Qrr" version="12.9.6" type="github">
  <diagram id="RliNS6cfbQFTs6zoy-J5" name="Page-1">
    <mxGraphModel dx="1185" dy="594" grid="1" gridSize="10" guides="1" tooltips="1" connect="1" arrows="1" fold="1" page="1" pageScale="1" pageWidth="827" pageHeight="1169" math="0" shadow="0">
      <root>
        <mxCell id="0" />
        <mxCell id="1" parent="0" />
        <mxCell id="j5SdilwbeuYUnC9iLJkP-45" value="" style="group" vertex="1" connectable="0" parent="1">
          <mxGeometry x="50" y="20" width="520" height="580" as="geometry" />
        </mxCell>
        <mxCell id="j5SdilwbeuYUnC9iLJkP-46" value="" style="group" vertex="1" connectable="0" parent="j5SdilwbeuYUnC9iLJkP-45">
          <mxGeometry width="520" height="580" as="geometry" />
        </mxCell>
        <mxCell id="j5SdilwbeuYUnC9iLJkP-68" value="" style="rounded=0;whiteSpace=wrap;html=1;" vertex="1" parent="j5SdilwbeuYUnC9iLJkP-46">
          <mxGeometry x="-50.43" y="-20" width="570.43" height="600" as="geometry" />
        </mxCell>
        <mxCell id="j5SdilwbeuYUnC9iLJkP-47" value="" style="rounded=0;whiteSpace=wrap;html=1;" vertex="1" parent="j5SdilwbeuYUnC9iLJkP-46">
          <mxGeometry width="200" height="130" as="geometry" />
        </mxCell>
        <mxCell id="j5SdilwbeuYUnC9iLJkP-48" value="MMS&lt;br&gt;service module" style="rounded=0;whiteSpace=wrap;html=1;" vertex="1" parent="j5SdilwbeuYUnC9iLJkP-46">
          <mxGeometry x="69.56521739130434" y="52" width="130.43478260869566" height="78" as="geometry" />
        </mxCell>
        <mxCell id="j5SdilwbeuYUnC9iLJkP-49" value="CMS" style="text;html=1;strokeColor=none;fillColor=none;align=center;verticalAlign=middle;whiteSpace=wrap;rounded=0;" vertex="1" parent="j5SdilwbeuYUnC9iLJkP-46">
          <mxGeometry x="26.08695652173913" y="26" width="34.78260869565217" height="17.333333333333336" as="geometry" />
        </mxCell>
        <mxCell id="j5SdilwbeuYUnC9iLJkP-3" value="MMS&lt;br&gt;DB" style="shape=cylinder;whiteSpace=wrap;html=1;boundedLbl=1;backgroundOutline=1;" vertex="1" parent="1">
          <mxGeometry x="414" y="380" width="60" height="80" as="geometry" />
        </mxCell>
        <mxCell id="j5SdilwbeuYUnC9iLJkP-5" value="" style="group" vertex="1" connectable="0" parent="1">
          <mxGeometry x="50" y="440" width="200" height="130" as="geometry" />
        </mxCell>
        <mxCell id="j5SdilwbeuYUnC9iLJkP-6" value="" style="group" vertex="1" connectable="0" parent="j5SdilwbeuYUnC9iLJkP-5">
          <mxGeometry width="200" height="130" as="geometry" />
        </mxCell>
        <mxCell id="j5SdilwbeuYUnC9iLJkP-7" value="" style="rounded=0;whiteSpace=wrap;html=1;" vertex="1" parent="j5SdilwbeuYUnC9iLJkP-6">
          <mxGeometry width="200" height="130" as="geometry" />
        </mxCell>
        <mxCell id="j5SdilwbeuYUnC9iLJkP-8" value="MMS&lt;br&gt;service module" style="rounded=0;whiteSpace=wrap;html=1;" vertex="1" parent="j5SdilwbeuYUnC9iLJkP-6">
          <mxGeometry x="69.56521739130434" y="52" width="130.43478260869566" height="78" as="geometry" />
        </mxCell>
        <mxCell id="j5SdilwbeuYUnC9iLJkP-9" value="DVS" style="text;html=1;strokeColor=none;fillColor=none;align=center;verticalAlign=middle;whiteSpace=wrap;rounded=0;" vertex="1" parent="j5SdilwbeuYUnC9iLJkP-6">
          <mxGeometry x="26.08695652173913" y="26" width="34.78260869565217" height="17.333333333333336" as="geometry" />
        </mxCell>
        <mxCell id="j5SdilwbeuYUnC9iLJkP-19" value="Spark Thrift Server" style="ellipse;whiteSpace=wrap;html=1;strokeColor=#000000;strokeWidth=1;" vertex="1" parent="1">
          <mxGeometry x="380" y="200" width="120" height="80" as="geometry" />
        </mxCell>
        <mxCell id="j5SdilwbeuYUnC9iLJkP-35" value="" style="group" vertex="1" connectable="0" parent="1">
          <mxGeometry x="50" y="300" width="200" height="130" as="geometry" />
        </mxCell>
        <mxCell id="j5SdilwbeuYUnC9iLJkP-36" value="" style="group" vertex="1" connectable="0" parent="j5SdilwbeuYUnC9iLJkP-35">
          <mxGeometry width="200" height="130" as="geometry" />
        </mxCell>
        <mxCell id="j5SdilwbeuYUnC9iLJkP-37" value="" style="rounded=0;whiteSpace=wrap;html=1;" vertex="1" parent="j5SdilwbeuYUnC9iLJkP-36">
          <mxGeometry width="200" height="130" as="geometry" />
        </mxCell>
        <mxCell id="j5SdilwbeuYUnC9iLJkP-38" value="MMS&lt;br&gt;service module" style="rounded=0;whiteSpace=wrap;html=1;" vertex="1" parent="j5SdilwbeuYUnC9iLJkP-36">
          <mxGeometry x="69.56521739130434" y="52" width="130.43478260869566" height="78" as="geometry" />
        </mxCell>
        <mxCell id="j5SdilwbeuYUnC9iLJkP-39" value="DGS" style="text;html=1;strokeColor=none;fillColor=none;align=center;verticalAlign=middle;whiteSpace=wrap;rounded=0;" vertex="1" parent="j5SdilwbeuYUnC9iLJkP-36">
          <mxGeometry x="26.08695652173913" y="26" width="34.78260869565217" height="17.333333333333336" as="geometry" />
        </mxCell>
        <mxCell id="j5SdilwbeuYUnC9iLJkP-40" value="" style="group" vertex="1" connectable="0" parent="1">
          <mxGeometry x="50" y="160" width="200" height="130" as="geometry" />
        </mxCell>
        <mxCell id="j5SdilwbeuYUnC9iLJkP-41" value="" style="group" vertex="1" connectable="0" parent="j5SdilwbeuYUnC9iLJkP-40">
          <mxGeometry width="200" height="130" as="geometry" />
        </mxCell>
        <mxCell id="j5SdilwbeuYUnC9iLJkP-42" value="" style="rounded=0;whiteSpace=wrap;html=1;" vertex="1" parent="j5SdilwbeuYUnC9iLJkP-41">
          <mxGeometry width="200" height="130" as="geometry" />
        </mxCell>
        <mxCell id="j5SdilwbeuYUnC9iLJkP-43" value="MMS&lt;br&gt;service module" style="rounded=0;whiteSpace=wrap;html=1;" vertex="1" parent="j5SdilwbeuYUnC9iLJkP-41">
          <mxGeometry x="69.56521739130434" y="52" width="130.43478260869566" height="78" as="geometry" />
        </mxCell>
        <mxCell id="j5SdilwbeuYUnC9iLJkP-44" value="DHS" style="text;html=1;strokeColor=none;fillColor=none;align=center;verticalAlign=middle;whiteSpace=wrap;rounded=0;" vertex="1" parent="j5SdilwbeuYUnC9iLJkP-41">
          <mxGeometry x="26.08695652173913" y="26" width="34.78260869565217" height="17.333333333333336" as="geometry" />
        </mxCell>
        <mxCell id="j5SdilwbeuYUnC9iLJkP-51" value="" style="endArrow=classic;html=1;exitX=1;exitY=0.5;exitDx=0;exitDy=0;entryX=0;entryY=0.5;entryDx=0;entryDy=0;endFill=1;" edge="1" parent="1" source="j5SdilwbeuYUnC9iLJkP-48" target="j5SdilwbeuYUnC9iLJkP-19">
          <mxGeometry width="50" height="50" relative="1" as="geometry">
            <mxPoint x="300" y="130" as="sourcePoint" />
            <mxPoint x="350" y="80" as="targetPoint" />
          </mxGeometry>
        </mxCell>
        <mxCell id="j5SdilwbeuYUnC9iLJkP-52" value="" style="endArrow=classic;html=1;exitX=1;exitY=0.5;exitDx=0;exitDy=0;entryX=0;entryY=0.5;entryDx=0;entryDy=0;endFill=1;" edge="1" parent="1" target="j5SdilwbeuYUnC9iLJkP-19">
          <mxGeometry width="50" height="50" relative="1" as="geometry">
            <mxPoint x="250" y="250" as="sourcePoint" />
            <mxPoint x="370" y="329" as="targetPoint" />
          </mxGeometry>
        </mxCell>
        <mxCell id="j5SdilwbeuYUnC9iLJkP-53" value="" style="endArrow=classic;html=1;exitX=1;exitY=0.5;exitDx=0;exitDy=0;entryX=0;entryY=0.5;entryDx=0;entryDy=0;endFill=1;" edge="1" parent="1" source="j5SdilwbeuYUnC9iLJkP-38" target="j5SdilwbeuYUnC9iLJkP-19">
          <mxGeometry width="50" height="50" relative="1" as="geometry">
            <mxPoint x="260" y="360" as="sourcePoint" />
            <mxPoint x="380" y="300" as="targetPoint" />
          </mxGeometry>
        </mxCell>
        <mxCell id="j5SdilwbeuYUnC9iLJkP-59" value="" style="endArrow=classic;html=1;exitX=1;exitY=0.5;exitDx=0;exitDy=0;entryX=0;entryY=0.5;entryDx=0;entryDy=0;endFill=1;" edge="1" parent="1" source="j5SdilwbeuYUnC9iLJkP-8" target="j5SdilwbeuYUnC9iLJkP-19">
          <mxGeometry width="50" height="50" relative="1" as="geometry">
            <mxPoint x="270" y="541" as="sourcePoint" />
            <mxPoint x="390" y="340" as="targetPoint" />
          </mxGeometry>
        </mxCell>
        <mxCell id="j5SdilwbeuYUnC9iLJkP-63" value="" style="endArrow=classic;html=1;exitX=1;exitY=0.5;exitDx=0;exitDy=0;entryX=0;entryY=0.7;entryDx=0;entryDy=0;endFill=1;" edge="1" parent="1" source="j5SdilwbeuYUnC9iLJkP-8" target="j5SdilwbeuYUnC9iLJkP-3">
          <mxGeometry width="50" height="50" relative="1" as="geometry">
            <mxPoint x="300" y="591" as="sourcePoint" />
            <mxPoint x="430" y="300" as="targetPoint" />
          </mxGeometry>
        </mxCell>
        <mxCell id="j5SdilwbeuYUnC9iLJkP-65" value="" style="endArrow=classic;html=1;exitX=1;exitY=0.75;exitDx=0;exitDy=0;entryX=0;entryY=0.7;entryDx=0;entryDy=0;endFill=1;" edge="1" parent="1" source="j5SdilwbeuYUnC9iLJkP-37" target="j5SdilwbeuYUnC9iLJkP-3">
          <mxGeometry width="50" height="50" relative="1" as="geometry">
            <mxPoint x="260" y="421" as="sourcePoint" />
            <mxPoint x="390" y="270" as="targetPoint" />
          </mxGeometry>
        </mxCell>
        <mxCell id="j5SdilwbeuYUnC9iLJkP-66" value="" style="endArrow=classic;html=1;exitX=1;exitY=0.5;exitDx=0;exitDy=0;endFill=1;entryX=0;entryY=0.7;entryDx=0;entryDy=0;" edge="1" parent="1" source="j5SdilwbeuYUnC9iLJkP-43" target="j5SdilwbeuYUnC9iLJkP-3">
          <mxGeometry width="50" height="50" relative="1" as="geometry">
            <mxPoint x="250" y="270" as="sourcePoint" />
            <mxPoint x="400" y="420" as="targetPoint" />
          </mxGeometry>
        </mxCell>
        <mxCell id="j5SdilwbeuYUnC9iLJkP-67" value="" style="endArrow=classic;html=1;exitX=1;exitY=0.5;exitDx=0;exitDy=0;endFill=1;" edge="1" parent="1" source="j5SdilwbeuYUnC9iLJkP-48">
          <mxGeometry width="50" height="50" relative="1" as="geometry">
            <mxPoint x="299.9999999999998" y="110.99999999999989" as="sourcePoint" />
            <mxPoint x="410" y="440" as="targetPoint" />
          </mxGeometry>
        </mxCell>
      </root>
    </mxGraphModel>
  </diagram>
</mxfile>
